<svg width="31" height="31" viewBox="0 0 31 31" fill="none" xmlns="http://www.w3.org/2000/svg">
<path fill-rule="evenodd" clip-rule="evenodd" d="M15.033 26.2694C16.5103 26.2675 17.9729 25.9746 19.337 25.4075C20.7012 24.8403 21.9403 24.0101 22.9836 22.9641C24.027 21.9181 24.854 20.6768 25.4176 19.3112C25.9812 17.9455 26.2703 16.4822 26.2684 15.0049C26.2665 13.5275 25.9736 12.065 25.4065 10.7008C24.8394 9.3366 24.0091 8.09748 22.9631 7.05418C21.9171 6.01087 20.6758 5.1838 19.3102 4.6202C17.9445 4.0566 16.4813 3.7675 15.0039 3.7694C12.0202 3.77326 9.16027 4.96222 7.05321 7.07473C4.94615 9.18723 3.76458 12.0502 3.76844 15.0339C3.77229 18.0176 4.96125 20.8776 7.07376 22.9846C9.18627 25.0917 12.0493 26.2732 15.033 26.2694ZM14.7343 19.5698L20.9746 12.0617L19.0525 10.4642L13.6859 16.9199L10.901 14.141L9.13582 15.9107L12.8907 19.6559L13.8594 20.6221L14.7343 19.5698Z" fill="url(#paint0_linear_1276_99)"/>
<defs>
<linearGradient id="paint0_linear_1276_99" x1="15.0039" y1="3.7694" x2="15.033" y2="26.2694" gradientUnits="userSpaceOnUse">
<stop stop-color="#0A8E57"/>
<stop offset="1" stop-color="#04492C"/>
</linearGradient>
</defs>
</svg>
